HIERARCHY
ROOT Hips
{
	OFFSET 0.000000 0.000000 0.000000 
	CHANNELS 6 Xposition Yposition Zposition Zrotation Yrotation Xrotation
	JOINT LeftUpLeg
	{
		OFFSET 1.363060 -1.794630 0.839290 
		CHANNELS 3 Zrotation Yrotation Xrotation
		JOINT LeftLeg
		{
			OFFSET 2.448110 -6.726130 0.000000 
			CHANNELS 3 Zrotation Yrotation Xrotation
			JOINT LeftFoot
			{
				OFFSET 2.562200 -7.039590 0.000000 
				CHANNELS 3 Zrotation Yrotation Xrotation
				JOINT LeftToeBase
				{
					OFFSET 0.157640 -0.433110 2.322550 
					CHANNELS 3 Zrotation Yrotation Xrotation
					End Site
					{
						OFFSET 0.000000 0.000000 0.000000 
					}
				}
			}
		}
	}
	JOINT RightUpLeg
	{
		OFFSET -1.305520 -1.794630 0.839290 
		CHANNELS 3 Zrotation Yrotation Xrotation
		JOINT RightLeg
		{
			OFFSET -2.542530 -6.985550 0.000000 
			CHANNELS 3 Zrotation Yrotation Xrotation
			JOINT RightFoot
			{
				OFFSET -2.568260 -7.056230 0.000000 
				CHANNELS 3 Zrotation Yrotation Xrotation
				JOINT RightToeBase
				{
					OFFSET -0.164730 -0.452590 2.363150 
					CHANNELS 3 Zrotation Yrotation Xrotation
					End Site
					{
						OFFSET 0.000000 0.000000 0.000000 
					}
				}
			}
		}
	}
	JOINT Spine
	{
		OFFSET 0.028270 2.035590 -0.193380 
		CHANNELS 3 Zrotation Yrotation Xrotation
		JOINT Spine1
		{
			OFFSET 0.056720 2.048850 -0.042750 
			CHANNELS 3 Zrotation Yrotation Xrotation
			JOINT Neck1
			{
				OFFSET -0.054170 1.746240 0.172020 
				CHANNELS 3 Zrotation Yrotation Xrotation
				JOINT Head
				{
					OFFSET 0.104070 1.761360 -0.123970 
					CHANNELS 3 Zrotation Yrotation Xrotation
					End Site
					{
						OFFSET 0.000000 0.000000 0.000000 
					}
				}
			}
			JOINT LeftArm
			{
				OFFSET 3.362410 1.200890 -0.311210 
				CHANNELS 3 Zrotation Yrotation Xrotation
				JOINT LeftForeArm
				{
					OFFSET 4.983000 -0.000000 -0.000000 
					CHANNELS 3 Zrotation Yrotation Xrotation
					JOINT LeftHand
					{
						OFFSET 3.483560 -0.000000 -0.000000 
						CHANNELS 3 Zrotation Yrotation Xrotation
						JOINT LeftHandIndex1
						{
							OFFSET 0.715260 -0.000000 -0.000000 
							CHANNELS 3 Zrotation Yrotation Xrotation
							End Site
							{
								OFFSET 0.000000 0.000000 0.000000 
							}
						}
					}
				}
			}
			JOINT RightArm
			{
				OFFSET -3.136600 1.374050 -0.404650 
				CHANNELS 3 Zrotation Yrotation Xrotation
				JOINT RightForeArm
				{
					OFFSET -5.241900 -0.000000 -0.000000 
					CHANNELS 3 Zrotation Yrotation Xrotation
					JOINT RightHand
					{
						OFFSET -3.444170 -0.000000 -0.000000 
						CHANNELS 3 Zrotation Yrotation Xrotation
						JOINT RightHandIndex1
						{
							OFFSET -0.622530 -0.000000 -0.000000 
							CHANNELS 3 Zrotation Yrotation Xrotation
							End Site
							{
								OFFSET 0.000000 0.000000 0.000000 
							}
						}
					}
				}
			}
		}
	}
}
MOTION
Frames: 14
Frame Time: 0.041667
3.334035 17.706040 0.402172 -35.017566 87.670066 -32.425914 -0.759273 -2.928648 -5.924313 -0.254526 -0.126593 1.517412 -0.158848 1.465511 5.870632 0.000000 0.000000 0.000000 22.769814 4.938956 -2.686706 -0.002455 -3.093167 15.353685 -0.803060 4.271672 -8.214632 -0.099700 2.036300 -5.606000 -0.802140 0.182147 4.304216 -2.903118 0.031171 -2.270328 7.924110 -7.246105 3.295710 3.611900 -3.491000 1.503900 -76.226149 5.505114 37.443488 14.562211 -27.067529 -3.315117 0.107986 0.607235 -30.251164 -7.125000 0.000000 0.000000 81.064161 -7.423099 20.950426 -14.512505 27.967320 -3.350028 0.112532 0.432214 14.128665 7.125000 0.000000 0.000000 
3.333935 17.707135 0.403965 -36.434087 87.658689 -33.821936 -0.755102 -2.931507 -5.918394 -0.254413 -0.130989 1.519097 -0.159659 1.461124 5.872193 0.000000 0.000000 0.000000 22.823987 5.013877 -2.651597 0.010651 -3.070996 15.282347 -0.788909 4.167400 -8.219664 -0.100700 2.046700 -5.634600 -0.796904 0.163359 4.293187 -2.912811 0.017687 -2.270942 7.909863 -7.240304 3.281238 3.599200 -3.488400 1.490900 -76.214912 5.518494 37.386768 14.576398 -27.086592 -3.322089 0.103233 0.606388 -30.219956 -7.125000 0.000000 0.000000 81.057651 -7.463964 21.116535 -14.562629 28.031558 -3.368188 0.110272 0.427115 13.988000 7.125000 0.000000 0.000000 
3.333338 17.707434 0.405261 -37.709993 87.642413 -35.086659 -0.751288 -2.934120 -5.912976 -0.254306 -0.135026 1.520646 -0.160409 1.457096 5.873629 0.000000 0.000000 0.000000 22.874794 5.072072 -2.653751 0.014967 -3.069986 15.269287 -0.784411 4.120336 -8.242550 -0.111900 2.156600 -5.938700 -0.782896 0.171533 4.283755 -2.913711 0.018173 -2.283462 7.920661 -7.261556 3.253505 3.607600 -3.499900 1.476000 -76.228999 5.510234 37.405677 14.583870 -27.095669 -3.324421 0.109051 0.614632 -30.251274 -7.125000 0.000000 0.000000 81.056021 -7.445150 21.132016 -14.558027 28.025756 -3.366279 0.109083 0.428025 13.930017 7.125000 0.000000 0.000000 
3.333935 17.707634 0.405061 -37.453771 87.634340 -34.819830 -0.752051 -2.933608 -5.914043 -0.254323 -0.134233 1.520344 -0.160266 1.457887 5.873350 0.000000 0.000000 0.000000 22.867839 5.080458 -2.659394 0.015507 -3.066882 15.260948 -0.786574 4.148694 -8.225086 -0.104600 2.085600 -5.742300 -0.776357 0.174909 4.283743 -2.906184 0.020826 -2.274370 7.921841 -7.256582 3.243905 3.615400 -3.498100 1.472300 -76.262730 5.488882 37.399899 14.562547 -27.068075 -3.315693 0.109616 0.614212 -30.219543 -7.125000 0.000000 0.000000 81.023785 -7.422317 21.162553 -14.545202 28.009892 -3.361239 0.109679 0.430259 13.841659 7.125000 0.000000 0.000000 
3.333636 17.706837 0.404862 -35.875227 87.640831 -33.233158 -0.756735 -2.930395 -5.920687 -0.254451 -0.129290 1.518448 -0.159351 1.462821 5.871594 0.000000 0.000000 0.000000 22.825934 5.082868 -2.672226 0.014737 -3.065349 15.263858 -0.780737 4.117154 -8.202674 -0.102200 2.061900 -5.676800 -0.796980 0.187816 4.276020 -2.906708 0.031136 -2.271941 7.895222 -7.249129 3.283443 3.595500 -3.493900 1.487100 -76.236369 5.519925 37.449849 14.603522 -27.119406 -3.330938 0.107823 0.615189 -30.282694 -7.125000 0.000000 0.000000 81.050301 -7.395789 21.054743 -14.503226 27.955124 -3.344788 0.105288 0.439869 13.946554 7.125000 0.000000 0.000000 
3.333935 17.707733 0.405559 -34.653492 87.661918 -31.993716 -0.760340 -2.927918 -5.925790 -0.254544 -0.125511 1.516999 -0.158653 1.466592 5.870257 0.000000 0.000000 0.000000 22.783564 5.038382 -2.697063 0.013325 -3.063091 15.263398 -0.783318 4.143842 -8.187311 -0.107500 2.114300 -5.821800 -0.802643 0.186377 4.271066 -2.880703 0.033856 -2.265158 7.883262 -7.247248 3.292281 3.591100 -3.493200 1.490600 -76.277529 5.482447 37.347345 14.559249 -27.063929 -3.315073 0.107231 0.611340 -30.158831 -7.125000 0.000000 0.000000 81.046508 -7.364624 21.012090 -14.487365 27.934659 -3.338680 0.103844 0.444167 14.036680 7.125000 0.000000 0.000000 
3.334234 17.708630 0.407353 -36.809392 87.610889 -34.135616 -0.753913 -2.932318 -5.916674 -0.254374 -0.132271 1.519587 -0.159909 1.459848 5.872656 0.000000 0.000000 0.000000 22.886252 5.082135 -2.689863 0.017270 -3.064650 15.256048 -0.781164 4.099354 -8.236549 -0.113900 2.176300 -5.993200 -0.784632 0.183130 4.254821 -2.903589 0.025505 -2.281866 7.865734 -7.235855 3.263275 3.579200 -3.488800 1.466200 -76.289065 5.456827 37.234029 14.506480 -27.000215 -3.296956 0.107300 0.607823 -30.104716 -7.125000 0.000000 0.000000 81.082751 -7.347472 20.964795 -14.476658 27.922238 -3.334799 0.108916 0.444940 14.079339 7.125000 0.000000 0.000000 
3.334932 17.709726 0.409146 -37.652756 87.580076 -34.967043 -0.751378 -2.934063 -5.913076 -0.254301 -0.134955 1.520619 -0.160409 1.457168 5.873610 0.000000 0.000000 0.000000 22.938794 5.130531 -2.664877 0.022353 -3.056669 15.229715 -0.781965 4.083072 -8.272249 -0.114000 2.176800 -5.994500 -0.770721 0.189774 4.247247 -2.902166 0.026286 -2.288870 7.838481 -7.234535 3.289726 3.563300 -3.487600 1.481500 -76.267699 5.447833 37.272744 14.526275 -27.023775 -3.304150 0.105499 0.610369 -30.174818 -7.125000 0.000000 0.000000 81.103072 -7.318433 20.895432 -14.484227 27.930904 -3.336922 0.103268 0.453947 14.170064 7.125000 0.000000 0.000000 
3.335330 17.708729 0.410939 -38.060618 87.595366 -35.385563 -0.750204 -2.934876 -5.911416 -0.254268 -0.136198 1.521099 -0.160638 1.455926 5.874052 0.000000 0.000000 0.000000 22.951333 5.154106 -2.612024 0.028617 -3.041954 15.189801 -0.775376 4.037079 -8.272575 -0.105500 2.094700 -5.767600 -0.767516 0.183011 4.249222 -2.889661 0.021961 -2.289670 7.808897 -7.232802 3.340563 3.547600 -3.486100 1.508100 -76.248028 5.449130 37.299215 14.541370 -27.041364 -3.309508 0.102180 0.606496 -30.212084 -7.125000 0.000000 0.000000 81.082046 -7.306670 20.966940 -14.516304 27.970079 -3.348033 0.094718 0.457502 14.136398 7.125000 0.000000 0.000000 
3.336525 17.706637 0.411836 -38.289798 87.601144 -35.624897 -0.749560 -2.935301 -5.910517 -0.254256 -0.136861 1.521349 -0.160751 1.455266 5.874284 0.000000 0.000000 0.000000 22.949195 5.136871 -2.582032 0.032641 -3.028577 15.153955 -0.778055 4.066031 -8.261552 -0.100400 2.043200 -5.625000 -0.783888 0.179034 4.261472 -2.914693 0.019748 -2.263308 7.848703 -7.216496 3.337906 3.567400 -3.477300 1.507600 -76.206925 5.456388 37.332296 14.578113 -27.086199 -3.323232 0.101652 0.605484 -30.250506 -7.125000 0.000000 0.000000 81.115570 -7.283218 20.973033 -14.513039 27.967045 -3.346333 0.096572 0.459538 14.099394 7.125000 0.000000 0.000000 
3.337024 17.705940 0.410939 -39.757506 87.590070 -37.119834 -0.745227 -2.938243 -5.904404 -0.254145 -0.141411 1.523091 -0.161584 1.450724 5.875895 0.000000 0.000000 0.000000 22.984543 5.099351 -2.538925 0.038704 -3.013090 15.107796 -0.775222 4.064809 -8.241417 -0.100100 2.040100 -5.616500 -0.785849 0.184563 4.285995 -2.960865 0.018579 -2.241574 7.853976 -7.221287 3.326648 3.570300 -3.479100 1.509600 -76.203321 5.429037 37.327609 14.606037 -27.118559 -3.334368 0.092889 0.609265 -30.218281 -7.125000 0.000000 0.000000 81.121779 -7.240891 20.970341 -14.512500 27.965846 -3.346115 0.098454 0.458589 14.023100 7.125000 0.000000 0.000000 
3.337920 17.706438 0.410839 -40.741228 87.566375 -38.091318 -0.742225 -2.940286 -5.900140 -0.254060 -0.144600 1.524312 -0.162177 1.447543 5.877033 0.000000 0.000000 0.000000 23.031856 5.047032 -2.539458 0.045925 -2.996922 15.059885 -0.761351 4.005219 -8.186690 -0.117500 2.210100 -6.086800 -0.758732 0.183802 4.283302 -2.951606 0.015652 -2.236521 7.830137 -7.217860 3.297142 3.562700 -3.478300 1.495900 -76.256721 5.425871 37.229746 14.620159 -27.134822 -3.340204 0.088789 0.604753 -30.145229 -7.125000 0.000000 0.000000 81.102797 -7.236316 20.932899 -14.510892 27.961642 -3.345780 0.093087 0.457540 14.050758 7.125000 0.000000 0.000000 
3.338020 17.708431 0.411537 -42.230484 87.558305 -39.578649 -0.737725 -2.943334 -5.893770 -0.253933 -0.149381 1.526145 -0.163056 1.442772 5.878736 0.000000 0.000000 0.000000 23.086935 5.059806 -2.512338 0.054659 -2.981910 15.010591 -0.754920 3.944504 -8.212407 -0.142200 2.430300 -6.696300 -0.747916 0.163439 4.283608 -2.957365 0.001071 -2.229572 7.798521 -7.203964 3.326798 3.538600 -3.470900 1.505400 -76.219739 5.421139 37.302773 14.653487 -27.175394 -3.352576 0.082974 0.605770 -30.282923 -7.125000 0.000000 0.000000 81.115279 -7.242482 21.012293 -14.540162 27.996616 -3.355418 0.082096 0.460056 13.959473 7.125000 0.000000 0.000000 
3.338119 17.709128 0.411337 -42.646912 87.571216 -39.975270 -0.736525 -2.944147 -5.892071 -0.253897 -0.150666 1.526638 -0.163289 1.441489 5.879195 0.000000 0.000000 0.000000 23.086849 5.041474 -2.528551 0.057369 -2.975134 14.987778 -0.754749 3.960549 -8.187603 -0.143000 2.437400 -6.716100 -0.747335 0.157090 4.290531 -2.953197 -0.002861 -2.206448 7.821723 -7.204156 3.350929 3.549200 -3.469500 1.524200 -76.213468 5.377604 37.332883 14.637740 -27.153228 -3.345371 0.087094 0.604898 -30.283899 -7.125000 0.000000 0.000000 81.090628 -7.233831 21.135067 -14.588531 28.055248 -3.372614 0.069381 0.458157 13.791430 7.125000 0.000000 0.000000 
